<svg xmlns="http://www.w3.org/2000/svg" viewBox="0 0 679.8 619.19"><defs><style>.cls-1{fill:gray;}</style></defs><g id="Layer_2" data-name="Layer 2"><g id="Layer_2-2" data-name="Layer 2"><circle class="cls-1" cx="518.3" cy="115.53" r="72.71"/><path class="cls-1" d="M642.48,336.5v55.17A24.51,24.51,0,0,1,618,416.18H417a24.51,24.51,0,0,1-24.51-24.51V335.3a125,125,0,0,1,125.06-125C586.75,210.34,642.48,267.29,642.48,336.5Z"/><circle class="cls-1" cx="160.3" cy="115.53" r="72.71"/><path class="cls-1" d="M284.48,336.5v55.17A24.51,24.51,0,0,1,260,416.18H59a24.51,24.51,0,0,1-24.51-24.51V335.3a125,125,0,0,1,125.06-125C228.75,210.34,284.48,267.29,284.48,336.5Z"/><circle cx="339.48" cy="89" r="89"/><path d="M491.48,359.46V427a30,30,0,0,1-30,30h-246a30,30,0,0,1-30-30V358A153,153,0,0,1,338.56,205C423.27,205,491.48,274.76,491.48,359.46Z"/><path d="M56.19,522.67l13.44,27.24,30.07,4.37a4.78,4.78,0,0,1,2.65,8.16l-21.76,21.2,5.14,30a4.78,4.78,0,0,1-6.94,5L51.9,604.49,25,618.63a4.78,4.78,0,0,1-6.94-5l5.13-30L1.45,562.44a4.78,4.78,0,0,1,2.65-8.16l30.07-4.37,13.44-27.24A4.78,4.78,0,0,1,56.19,522.67Z"/><path d="M200.19,522.67l13.44,27.24,30.07,4.37a4.78,4.78,0,0,1,2.65,8.16l-21.76,21.2,5.14,30a4.78,4.78,0,0,1-6.94,5L195.9,604.49,169,618.63a4.78,4.78,0,0,1-6.94-5l5.13-30-21.75-21.2a4.78,4.78,0,0,1,2.65-8.16l30.07-4.37,13.44-27.24A4.78,4.78,0,0,1,200.19,522.67Z"/><path d="M344.19,522.67l13.44,27.24,30.07,4.37a4.78,4.78,0,0,1,2.65,8.16l-21.76,21.2,5.14,30a4.78,4.78,0,0,1-6.94,5L339.9,604.49,313,618.63a4.78,4.78,0,0,1-6.94-5l5.13-30-21.75-21.2a4.78,4.78,0,0,1,2.65-8.16l30.07-4.37,13.44-27.24A4.78,4.78,0,0,1,344.19,522.67Z"/><path class="cls-1" d="M488.19,522.67l13.44,27.24,30.07,4.37a4.78,4.78,0,0,1,2.65,8.16l-21.76,21.2,5.14,30a4.78,4.78,0,0,1-6.94,5L483.9,604.49,457,618.63a4.78,4.78,0,0,1-6.94-5l5.13-30-21.75-21.2a4.78,4.78,0,0,1,2.65-8.16l30.07-4.37,13.44-27.24A4.78,4.78,0,0,1,488.19,522.67Z"/><path class="cls-1" d="M632.19,522.67l13.44,27.24,30.07,4.37a4.78,4.78,0,0,1,2.65,8.16l-21.76,21.2,5.14,30a4.78,4.78,0,0,1-6.94,5L627.9,604.49,601,618.63a4.78,4.78,0,0,1-6.94-5l5.13-30-21.75-21.2a4.78,4.78,0,0,1,2.65-8.16l30.07-4.37,13.44-27.24A4.78,4.78,0,0,1,632.19,522.67Z"/></g></g></svg>