<svg xmlns="http://www.w3.org/2000/svg" viewBox="0 0 432 351"><defs><style>.cls-1{fill:#fff;}</style></defs><g id="Layer_2" data-name="Layer 2"><g id="Layer_2-2" data-name="Layer 2"><path d="M402,351H30A30,30,0,0,1,0,321V117H432V321A30,30,0,0,1,402,351Z"/><path d="M432,99H0V30A30,30,0,0,1,30,0H94c9.26,0,18.32,3.27,24,10.58L144,44l258,1a30,30,0,0,1,30,30Z"/><path class="cls-1" d="M216,167a48,48,0,1,1-48,48,48.05,48.05,0,0,1,48-48m0-15a63,63,0,1,0,63,63,63,63,0,0,0-63-63Z"/><path class="cls-1" d="M290,304.5a7.49,7.49,0,0,1-5.61-2.52l-32-36a7.5,7.5,0,0,1,11.22-10l32,36A7.5,7.5,0,0,1,290,304.5Z"/></g></g></svg>