<svg xmlns="http://www.w3.org/2000/svg" viewBox="0 0 116.22 148.04"><defs><style>.cls-1{fill:#232323;}.cls-2{fill:#fff;}</style></defs><g id="Layer_2" data-name="Layer 2"><g id="OBJECTS"><path class="cls-1" d="M116,65.3a16.65,16.65,0,0,1-6.65,1.35,7.86,7.86,0,0,1-7.91-9.49,16.38,16.38,0,0,1,2.81-6.68,35.09,35.09,0,0,1,11.44-10.75L115.4,36c0-.08,0-.15,0-.22q-.48-6.54-1.2-13a.65.65,0,0,0,0-.2c-.81-7.48-1.82-14.93-3-22.4h0a.68.68,0,0,0,0-.14l-.75.22a200.37,200.37,0,0,0-27,10.12l-.2.09C79.77,12,76.35,13.63,73,15.31l-.19.11h0c-2,1-4,2-5.93,3a247.8,247.8,0,0,0-23,13.33l-.18.13A143.39,143.39,0,0,0,31.37,41,34.72,34.72,0,0,1,34.6,57.11c0,.38,0,.75-.07,1.12l0,.32h0c-.45,4.59-2.3,9.36-6.44,11.18-3.43,1.49-7.5.48-10.65-1.53a20.81,20.81,0,0,1-5.74-5.56,72.75,72.75,0,0,0-9.8,21.78,1.72,1.72,0,0,0-.07.21,61.08,61.08,0,0,0-1.46,8A37.32,37.32,0,0,0,1,106.27a29.46,29.46,0,0,0,17,19.16,35,35,0,0,0,25.25.39l.61-.23s0,0,0,0h0c1.61,6.15,6.84,11.72,12.13,15.26a44.52,44.52,0,0,0,17.83,6.51,32.78,32.78,0,0,0,12,.11c7.12-1.49,13.11-6.56,17.07-12.68a50.32,50.32,0,0,0,5.56-12.21l.06-.22c.82-2.58,1.5-5.22,2.11-7.85a208.72,208.72,0,0,0,4-24.51.9.9,0,0,0,0-.23q.7-6.43,1.1-12.89c.13-1.9.22-3.8.3-5.69a1.55,1.55,0,0,1,0-.22c.08-2,.14-3.89.18-5.84ZM61.82,111.64a4.41,4.41,0,0,1-1.1-2.26c-.24-2.17,1.8-3.84,3.62-5a44.89,44.89,0,0,1,9.47-5.22c6.12-2.19,11.5-1.45,13.68,5.21a6.59,6.59,0,0,1,.33,3.37c-.4,2-2,3.44-3.75,4.44a24.58,24.58,0,0,1-10.6,2.79C69.29,115.23,64.53,114.83,61.82,111.64Z"/><path class="cls-2" d="M111.16.14h0a133.36,133.36,0,0,0-8.68,11.07q-5.26,7.35-10.25,15a2.75,2.75,0,0,0-.19.28h0q-4.55,7-8.85,14.23c-.06.09-.11.18-.16.27q-9.54,16-17.85,33.2c0,.08-.09.17-.14.26Q59.24,86.45,54,99c0,.09-.08.19-.11.28q-4.83,11.58-9.12,23.62a2.5,2.5,0,0,0-.09.25l-.9,2.52s0,0,0,0l-.61.23c.31-.86.61-1.72.92-2.57a2.41,2.41,0,0,1,.08-.25q4.43-12.39,9.4-24.33h0a2.59,2.59,0,0,1,.17-.38q5-12.07,10.63-23.64c0-.08.08-.17.12-.25Q72.81,57.2,82.33,41.16h0l.16-.26q4.26-7.2,8.8-14.15a1.11,1.11,0,0,1,.17-.27q5.15-7.93,10.6-15.55A131.93,131.93,0,0,1,110.39.22l.75-.22A.68.68,0,0,1,111.16.14Z"/><path class="cls-2" d="M114.19,22.75A88.1,88.1,0,0,0,92,26.52h0c-.24.06-.46.14-.7.21h0a.11.11,0,0,1-.1-.07,72.65,72.65,0,0,0-8-16.24l.2-.09a72.51,72.51,0,0,1,7.94,16.15l.1,0,.77-.23a87.18,87.18,0,0,1,21.93-3.69A.64.64,0,0,1,114.19,22.75Z"/><path class="cls-2" d="M115.4,36A133.73,133.73,0,0,0,83,41l-.58.16h0l-.06,0s0,0,0,0h0l0,0a70,70,0,0,0-9.53-25.68l.2-.11a70.34,70.34,0,0,1,9.52,25.58.43.43,0,0,0,0,0l.68-.18a133.59,133.59,0,0,1,32.2-5C115.39,35.87,115.39,35.94,115.4,36Z"/><path class="cls-2" d="M116,71a1.55,1.55,0,0,0,0,.22c-18.09-1.85-35.22-.76-51,3.24q-.3.06-.6.15h-.09l0-.07A119,119,0,0,0,43.61,31.89l.18-.13A119.16,119.16,0,0,1,64.48,74.4h0c.22,0,.44-.12.67-.16C80.92,70.26,98,69.19,116,71Z"/><path class="cls-2" d="M114.64,89.83a.91.91,0,0,1,0,.23c-21.6-.7-42.46,2.45-60.7,9.19l-.08,0h0a.11.11,0,0,1-.06,0,.09.09,0,0,1,0-.08c0-.18-.07-.34-.1-.52h0c-2.12-11.82-8.53-22.75-14.19-32.42a82.88,82.88,0,0,0-4.89-7.68h0a1.73,1.73,0,0,0,0-.32,83.74,83.74,0,0,1,5,7.9c5.62,9.59,12,20.42,14.17,32.15l.13.74L54,99C72.25,92.27,93.08,89.14,114.64,89.83Z"/><path class="cls-2" d="M108.46,122.42a1.41,1.41,0,0,1-.06.22,154.91,154.91,0,0,0-63.7.48l-.6.13-.19,0a.12.12,0,0,1-.12-.05,104.84,104.84,0,0,0-42-38.6.83.83,0,0,1,.06-.21A105,105,0,0,1,44,123.06l.23-.06.61-.13A155.46,155.46,0,0,1,108.46,122.42Z"/><path class="cls-2" d="M87.26,138.93a1.92,1.92,0,1,1,1.09,2.48A1.92,1.92,0,0,1,87.26,138.93Z"/><path class="cls-2" d="M101.57,125.8A12.47,12.47,0,0,1,99,133.2,12,12,0,0,1,96.1,136a9.33,9.33,0,0,1-3.69,1.55.32.32,0,0,1-.29-.55l0,0c1-.88,1.85-1.66,2.66-2.53a28.11,28.11,0,0,0,2.31-2.68c1.46-1.86,2.71-3.9,4.12-6.07h0a.18.18,0,0,1,.25-.06A.21.21,0,0,1,101.57,125.8Z"/></g></g></svg>