<svg xmlns="http://www.w3.org/2000/svg" viewBox="0 0 139.6 191.67"><defs><style>.cls-1{fill:#232323;}.cls-2{fill:#d1d1d1;}.cls-3{fill:#fff;}.cls-4{fill:none;stroke:#232323;stroke-linecap:round;stroke-linejoin:round;stroke-width:2px;}</style></defs><g id="Layer_2" data-name="Layer 2"><g id="OBJECTS"><path class="cls-1" d="M38.22,17.46c-8.09,2.5-15.51,6.81-22.4,11.72C9.47,33.7,3.28,39.1.52,46.39c-.52,1.38-.87,3.07,0,4.23a3.91,3.91,0,0,0,3.18,1.14c4.18-.07,7.82-2.74,11-5.41A161.38,161.38,0,0,0,39.13,21.19C38.91,19.76,38.44,18.89,38.22,17.46Z"/><path class="cls-1" d="M39.07,20.39A85.45,85.45,0,0,0,12.2,68.65,12.85,12.85,0,0,0,12,73.51a4.84,4.84,0,0,0,2.91,3.66c2.83,1,5.51-1.74,7.1-4.28,9.18-14.63,10.55-33.12,19.75-47.74-1.14-1.74-2.08-3.62-3.22-5.36C38.33,19.44,38.74,20.64,39.07,20.39Z"/><path class="cls-1" d="M40.15,24.2a106.23,106.23,0,0,0-9.1,46.69,28.46,28.46,0,0,0,1.44,9c.66,1.73,1.76,3.47,3.52,4a5,5,0,0,0,4.8-1.32,10.81,10.81,0,0,0,2.6-4.47c1.53-4.39,1.91-9.09,2.16-13.73a266.72,266.72,0,0,0-.9-40C43,24.55,41.86,24.14,40.15,24.2Z"/><path class="cls-1" d="M41.52,23.41a87.28,87.28,0,0,0,13.76,36c3.27,4.91,8,9.93,13.87,9.64a6.48,6.48,0,0,0,3.55-1.14c2.82-2.07,2.64-6.31,1.77-9.7C70.54,42.91,58.86,30.9,46.62,21,44.91,21.7,43.22,22.67,41.52,23.41Z"/><path class="cls-1" d="M44.31,22.59C50.9,27,56.92,32.15,63.59,36.4S77.8,44,85.7,44.06c3.13,0,6.71-.76,8.22-3.5a6.69,6.69,0,0,0-.27-6.29,14.63,14.63,0,0,0-4.51-4.69C78,21.5,63.54,20.05,49.84,18.86,47.58,20.55,46.56,20.9,44.31,22.59Z"/><path class="cls-1" d="M41.87,15.85C49,7.33,59.74,2.33,70.71.54A28.58,28.58,0,0,1,81.34.47a13.73,13.73,0,0,1,8.73,5.69,3.22,3.22,0,0,1,.62,1.72,3.17,3.17,0,0,1-.8,1.88,14.89,14.89,0,0,1-5.75,4C72.57,19.1,59.69,20.69,47,22.22,45.89,19.63,43.82,17.91,41.87,15.85Z"/><path class="cls-2" d="M35.43,16.59a19.31,19.31,0,0,0-6.75,7.28c-3.68,7.85,6.6,5.19,10.22,3.77A44.45,44.45,0,0,0,54,18.23a6.74,6.74,0,0,0,1.54-2.06c1.56-3.71-2.76-5-5.59-5.15-4.71-.32-9.15,2.11-13,4.58C36.41,15.92,35.92,16.25,35.43,16.59Z"/><path class="cls-1" d="M70.73,186.6c-2-3.47-4.92-9.76-6.61-12.87-2.53-4.63-5.3-9.12-8.17-13.55-5.72-8.81-11.84-17.37-17.29-26.35a143.64,143.64,0,0,1-8.15-15.17c-1-2.21-2-4.63-1.44-7a2.53,2.53,0,0,1,.7-1.39,2.17,2.17,0,0,1,1.21-.52l.32,0h.12c2.66-.13,5,1.71,6.92,3.56C52.72,127.16,60.5,146,66.09,165.19A118,118,0,0,1,70,180.6c.1.59.18,1.19.26,1.8C70.47,183.72,70.62,185.12,70.73,186.6Z"/><path class="cls-3" d="M70.29,182.4c-3.87-14-10-27.39-15.84-40.37a115.42,115.42,0,0,0-5.8-11.62,115.26,115.26,0,0,0-7.51-10.61c-2.64-3.43-5.87-7.63-10.16-10l.32,0h.12c4.17,2.48,7.33,6.57,9.92,9.94a114.32,114.32,0,0,1,7.52,10.63,114.85,114.85,0,0,1,5.82,11.64c5.65,12.46,11.47,25.3,15.35,38.68C70.13,181.19,70.21,181.79,70.29,182.4Z"/><path class="cls-1" d="M119.78,109.55c0,1.84-1.18,3.45-2.32,4.89a110.1,110.1,0,0,1-8.74,9.7C103.08,129.77,97,135,91.23,140.42c-2.91,2.74-5.77,5.55-8.46,8.5-1.81,2-5.08,6.09-7.19,8.27,2.14-6.57,4.7-10.45,7.28-14.91,7.58-13.12,16.71-25.59,29.8-33.22,1.73-1,3.76-1.93,5.68-1.39l.15,0,.16.06a1.84,1.84,0,0,1,.87.63A2,2,0,0,1,119.78,109.55Z"/><path class="cls-3" d="M118.65,107.77c-23.51,14.42-41.26,45.48-41.45,45.8a.11.11,0,0,1-.11.06.07.07,0,0,1-.06,0,.12.12,0,0,1,0-.17c.17-.32,17.87-31.26,41.35-45.77l.15,0Z"/><path class="cls-4" d="M42.45,28.91c8,17.34,12.13,34.5,15.89,53.22A646,646,0,0,1,70.67,190.67"/><path class="cls-4" d="M70.57,181.73A310.08,310.08,0,0,1,111.91,70.87"/><path class="cls-1" d="M105.68,65.23a55.3,55.3,0,0,0-17.45-2.6c-5.44-.06-11.15.44-15.7,3.42a3.06,3.06,0,0,0-1.71,2.4,2.7,2.7,0,0,0,1.32,2c2.39,1.67,5.54,1.67,8.45,1.48a113,113,0,0,0,24.07-4.18C105.13,66.81,105.22,66.13,105.68,65.23Z"/><path class="cls-1" d="M105,67.23A59.66,59.66,0,0,0,70,83.41a8.72,8.72,0,0,0-2.1,2.67A3.37,3.37,0,0,0,68,89.34c1.21,1.7,3.83,1.28,5.77.51C85,85.37,93.33,75.49,104.53,71c.07-1.46.32-2.9.39-4.36C104.93,66.39,104.67,67.24,105,67.23Z"/><path class="cls-1" d="M104,69.82A74.2,74.2,0,0,0,79.68,92.43a19.72,19.72,0,0,0-2.91,5.68,4.43,4.43,0,0,0,.33,3.74,3.48,3.48,0,0,0,3.24,1.22,7.51,7.51,0,0,0,3.31-1.45,34.56,34.56,0,0,0,6.86-6.86,185.46,185.46,0,0,0,15.92-22.91C105.44,71.18,105,70.49,104,69.82Z"/><path class="cls-1" d="M105.1,69.94a61.16,61.16,0,0,0-7,26c-.17,4.12.42,8.88,3.87,11.14a4.58,4.58,0,0,0,2.47.82c2.44,0,4.08-2.48,5-4.75,4.07-10.23,2.42-21.8-.4-32.44C107.72,70.37,106.36,70.23,105.1,69.94Z"/><path class="cls-1" d="M107,70.63c1.92,5.17,3.19,10.57,5.2,15.71s4.89,10.12,9.32,13.41c1.76,1.31,4.1,2.34,6.08,1.41a4.68,4.68,0,0,0,2.44-3.66,10.36,10.36,0,0,0-.62-4.5c-3-9.13-10.52-15.9-17.77-22.21C109.7,70.82,109,70.6,107,70.63Z"/><path class="cls-1" d="M108.41,65.82c7.53-1.87,15.64-.28,22.56,3.23a19.68,19.68,0,0,1,6,4.33,9.56,9.56,0,0,1,2.58,6.79,2.38,2.38,0,0,1-.35,1.23,2.22,2.22,0,0,1-1.23.73,10.51,10.51,0,0,1-4.89-.1c-8.72-1.75-16.64-6.15-24.41-10.49C109.12,69.61,108.66,67.79,108.41,65.82Z"/><path class="cls-2" d="M104.47,63.59a13.38,13.38,0,0,0-6.8,1.34c-5.3,2.91,1.59,5.64,4.21,6.32a31,31,0,0,0,12.38.89,4.87,4.87,0,0,0,1.71-.53c2.41-1.45.48-3.93-1-5.2-2.52-2.12-6-2.57-9.22-2.77Z"/></g></g></svg>