<svg xmlns="http://www.w3.org/2000/svg" viewBox="0 0 108.83 260.14"><defs><style>.cls-1{fill:#454545;}.cls-2{fill:#232323;}.cls-3{fill:#d6d6d6;}.cls-4{fill:#fff;}.cls-5{fill:none;stroke:#d6d6d6;stroke-miterlimit:10;stroke-width:0.58px;}</style></defs><g id="Layer_2" data-name="Layer 2"><g id="OBJECTS"><path class="cls-1" d="M104,173l-1.29,24a4.67,4.67,0,0,1-3.65,4.3l-1.9.42s.08,5-.2,12.86c0,.2,0,.4,0,.61,0,1.41-.12,2.92-.2,4.5,0,.2,0,.41,0,.61,0,1-.1,2-.17,3,0,.2,0,.39,0,.6-.09,1.5-.19,3-.32,4.61-.4,5.11-.89,9.85-1.37,13.91,0,.21,0,.41-.07.61-.18,1.62-.37,3.12-.55,4.49a11.66,11.66,0,0,1-9.63,10c-6.36,1.06-12.57,1.75-18.46,2.16a217.5,217.5,0,0,1-25.76.19c-6-.31-11.16-.83-15-1.31a11.62,11.62,0,0,1-9.93-9c-.17-.78-.32-1.57-.47-2.39a5,5,0,0,1-.12-.58,180.14,180.14,0,0,1-2.22-18.25c0-.2,0-.4,0-.58q-.12-1.53-.21-3c0-.2,0-.38,0-.58-.14-2.31-.25-4.5-.34-6.51,0-.23,0-.45,0-.68-.06-1.33-.09-2.56-.13-3.69,0-.78,0-1.52-.06-2.18-.07-2.87-.07-4.61-.07-4.61l-2.88-.65a4.64,4.64,0,0,1-3.62-4.6L5.49,173Z"/><path class="cls-2" d="M73.53,205.41l-61.66,7.83c0-.78,0-1.52-.06-2.18-.07-2.87-.07-4.61-.07-4.61S51.19,207.35,73.53,205.41Z"/><path class="cls-2" d="M97,214.55c0,.2,0,.4,0,.61a18.43,18.43,0,0,1-3-1.29c-1.63-.83-3.32-1.69-4.74-1.46s-2.7,1.55-4,2.83-2.82,2.86-4.47,3.07-3.36-.86-5-1.88-3.17-1.93-4.59-1.79S68.37,216,67,217.24s-3,2.64-4.59,2.74-3.34-1-5-2.16c-1.45-1-3-2-4.32-2H53c-1.45.06-2.95,1.26-4.39,2.44s-3,2.46-4.63,2.48h-.07c-1.68,0-3.31-1.22-4.89-2.4s-2.9-2.18-4.25-2.18a4.86,4.86,0,0,0-2.31.72,20.71,20.71,0,0,0-2.31,1.59c-1.59,1.18-3.06,2.28-4.61,2.26-1.81,0-3.46-1.38-5.06-2.67-1.4-1.13-2.72-2.2-4-2.25-1.52-.08-3,.84-4.49,1.83,0-.23,0-.45,0-.68a8.16,8.16,0,0,1,4.54-1.73c1.44,0,2.84,1.17,4.32,2.38s3.09,2.5,4.7,2.54c1.37,0,2.74-1,4.25-2.15s3.24-2.42,5-2.42a4.86,4.86,0,0,1,2.32.72,20.61,20.61,0,0,1,2.28,1.57c1.51,1.13,3.06,2.29,4.54,2.29H44c1.38,0,2.78-1.16,4.26-2.36s3.09-2.49,4.75-2.56,3.21,1,4.78,2.13,3.15,2.15,4.61,2.07,2.85-1.37,4.23-2.6,2.93-2.62,4.55-2.76,3.3.89,4.94,1.89,3.24,2,4.66,1.79,2.81-1.55,4.12-2.9,2.73-2.75,4.3-3,3.38.64,5.1,1.51A17.76,17.76,0,0,0,97,214.55Z"/><path class="cls-2" d="M96.78,219.66c0,.2,0,.41,0,.61-17.58,3.89-43,4.78-62.65,4.78-8.83,0-16.48-.17-21.69-.35,0-.2,0-.38,0-.58C29.18,224.67,71.35,225.33,96.78,219.66Z"/><path class="cls-2" d="M94.84,242.4c0,.21,0,.41-.07.61-10,2-22.21,3.16-34.37,3.76-8.3.41-16.58.58-24.1.6H34.08c-7.47,0-14.08-.13-19.09-.27a5,5,0,0,1-.12-.58c5.49.15,12.94.29,21.32.27,7.46,0,15.66-.19,23.89-.6C72.39,245.61,84.78,244.47,94.84,242.4Z"/><path class="cls-2" d="M96.57,223.28c0,.2,0,.39,0,.6-17.58,3.85-42.91,4.74-62.45,4.74-8.68,0-16.21-.18-21.43-.34,0-.2,0-.4,0-.58C29.55,228.23,71.24,228.87,96.57,223.28Z"/><path class="cls-2" d="M20.38,234.84c0,1.86-1.06,3.37-2.38,3.37s-2.38-1.51-2.38-3.37,1.07-3.37,2.38-3.37S20.38,233,20.38,234.84Z"/><path class="cls-2" d="M31.7,236.23c0,1.86-1.07,3.37-2.39,3.37s-2.38-1.51-2.38-3.37,1.07-3.37,2.38-3.37S31.7,234.37,31.7,236.23Z"/><path class="cls-2" d="M31.7,236.23c0,1.86-1.07,3.37-2.39,3.37s-2.38-1.51-2.38-3.37,1.07-3.37,2.38-3.37S31.7,234.37,31.7,236.23Z"/><path class="cls-2" d="M42.42,236.23c0,1.86-1.07,3.37-2.39,3.37s-2.38-1.51-2.38-3.37,1.07-3.37,2.38-3.37S42.42,234.37,42.42,236.23Z"/><path class="cls-2" d="M42.42,236.23c0,1.86-1.07,3.37-2.39,3.37s-2.38-1.51-2.38-3.37,1.07-3.37,2.38-3.37S42.42,234.37,42.42,236.23Z"/><path class="cls-2" d="M53.13,236.23c0,1.86-1.06,3.37-2.38,3.37s-2.38-1.51-2.38-3.37,1.07-3.37,2.38-3.37S53.13,234.37,53.13,236.23Z"/><path class="cls-2" d="M53.13,236.23c0,1.86-1.06,3.37-2.38,3.37s-2.38-1.51-2.38-3.37,1.07-3.37,2.38-3.37S53.13,234.37,53.13,236.23Z"/><path class="cls-2" d="M63.85,236.23c0,1.86-1.06,3.37-2.38,3.37s-2.38-1.51-2.38-3.37,1.06-3.37,2.38-3.37S63.85,234.37,63.85,236.23Z"/><path class="cls-2" d="M63.85,236.23c0,1.86-1.06,3.37-2.38,3.37s-2.38-1.51-2.38-3.37,1.06-3.37,2.38-3.37S63.85,234.37,63.85,236.23Z"/><path class="cls-2" d="M74.57,235.24c0,1.86-1.07,3.37-2.38,3.37s-2.38-1.51-2.38-3.37,1.06-3.38,2.38-3.38S74.57,233.37,74.57,235.24Z"/><path class="cls-2" d="M84.49,234.24c0,1.87-1.06,3.38-2.38,3.38s-2.38-1.51-2.38-3.38,1.07-3.37,2.38-3.37S84.49,232.38,84.49,234.24Z"/><ellipse class="cls-2" cx="91.64" cy="232.86" rx="2.38" ry="3.37"/><path class="cls-2" d="M104,173c0,2.47-16.29,4.55-38.13,5.07-.73,0-1.48,0-2.23.06H63.4c-1.54,0-3.09,0-4.67.06H52.66c-1.87,0-3.72,0-5.54,0h-.29c-1.68,0-3.33-.06-4.95-.1h-.29l-1.25,0c-20.18-.65-34.85-2.65-34.85-5s14.36-4.29,34.21-5l1.54-.05h.29c1.5,0,3-.08,4.6-.1h.31q3.11-.06,6.34-.06h2l4.75,0h.29l5,.08h.29c.84,0,1.66,0,2.47.06C88.56,168.52,104,170.55,104,173Z"/><path class="cls-2" d="M107.74,126.37c-1.28,6.37-3.15,12.84-7.3,17.82-3.72,4.46-9,7.37-14.55,9.11-.47.15-1,.29-1.43.42s-.89.25-1.34.36h0a101.6,101.6,0,0,1-13.81,2.22c-.62,4.24-1.21,8.15-1.75,11.62-.61,4-1.17,7.39-1.63,10.11-.73,0-1.48,0-2.23.06H63.4c-1.54,0-3.09,0-4.67.06H52.66c-1.87,0-3.72,0-5.54,0h-.29c-1.68,0-3.33-.06-4.95-.1h-.29l-1.25,0c-.18-2.65-.4-6-.64-10-.76-12.46-1.69-30.74-2.1-50.7-4.45,1.7-10.33,1.34-14.42.7-5.33-.85-10.65-3.13-14.12-7.41-2.39-3-3.71-6.62-4.77-10.26-.22-.77-.44-1.55-.64-2.33-.08-.32-.17-.63-.24-1A117.69,117.69,0,0,1,0,67.45a82.76,82.76,0,0,1,5.49-30,22.51,22.51,0,0,1,5.32-7.9,1.88,1.88,0,0,1,.26-.22,11.12,11.12,0,0,1,8-3.19l.54,0,.31.05a6.57,6.57,0,0,1,4.73,3.21h0a5.5,5.5,0,0,1,.39.72h0c1.3,2.57,1.66,5.91,1.86,8.64,1.2,16.36-2.41,32.58-1.2,49,.2,2.76.65,5.77,2.66,7.69,2.37,2.28,5.68,2.28,8.69,3l.28,0v-.29c0-41.41,2.92-84.41,14.48-95.53.14-.14.28-.26.42-.38A8.77,8.77,0,0,1,57.5,0h.62a10.35,10.35,0,0,1,1.58,0l.28,0a10.87,10.87,0,0,1,3.81,1.19l.3.16A16.33,16.33,0,0,1,70,7.7l.48.86h0c5.72,10.68,7.59,30.33,7.37,52.73A11,11,0,0,0,84.56,56c6.56-10.8,2.91-24.88,8.67-36a16,16,0,0,1,2.07-3.05s0,0,0,0l.31-.33c1.51-1.62,3.43-2.87,5.5-2.7a5.11,5.11,0,0,1,1.72.42,1.08,1.08,0,0,1,.26.14h0c3,1.49,3.83,5.71,4,9.85,0,.22,0,.45,0,.68.09,2.78-.07,5.47-.07,7.14,0,9.49-.48,19.08-3.14,28.24a25.55,25.55,0,0,1-13.42,16.3,60,60,0,0,1-13.05,4.94,1.63,1.63,0,0,1-.3.07,1.36,1.36,0,0,1,0,.29c-1,18-2.92,36.6-5,53a7.39,7.39,0,0,0,1.37-.24,15.46,15.46,0,0,0,7.32-5c3-3.49,4.7-7.84,6.45-12.06,1.63-3.95,3.39-8,6.22-11.13h0c.21-.24.41-.45.62-.67a1.36,1.36,0,0,1,.12-.12h0A8.42,8.42,0,0,1,99,103a6,6,0,0,1,3,.39,1.43,1.43,0,0,0,.28.13,10.61,10.61,0,0,1,4.77,5,17.65,17.65,0,0,1,.87,2.29,3.64,3.64,0,0,1,.14.47h0C109.42,116.06,108.74,121.39,107.74,126.37Z"/><path class="cls-3" d="M37.58,105.44a.29.29,0,0,1-.29-.29c0-.29-.19-6.5-.19-6.56a.29.29,0,0,1,.28-.3.28.28,0,0,1,.3.28c0,.26.19,6.28.19,6.58A.29.29,0,0,1,37.58,105.44Z"/><path class="cls-3" d="M77.19,82h0a.28.28,0,0,1-.27-.31l.8-11.57A.3.3,0,0,1,78,69.8a.28.28,0,0,1,.27.31l-.8,11.57A.29.29,0,0,1,77.19,82Z"/><path class="cls-3" d="M69.21,155.54h0a.28.28,0,0,1-.25-.32l1.49-11a.29.29,0,0,1,.33-.25.29.29,0,0,1,.25.33l-1.49,11A.29.29,0,0,1,69.21,155.54Z"/><path class="cls-3" d="M41.53,167.93q.13,5,.35,10.07h-.29q-.21-5-.35-10.05c-.86-26.77-.83-53.71,0-80.36.92-27.79,2.87-57.16,10.6-84.82.14-.14.28-.26.42-.38-7.84,27.75-9.82,57.28-10.73,85.21C40.7,114.23,40.68,141.16,41.53,167.93Z"/><path class="cls-3" d="M47.57,46.13a872.8,872.8,0,0,0-1.13,121.69c.19,3.43.43,6.85.68,10.29h-.29c-.27-3.43-.49-6.85-.7-10.27A874.8,874.8,0,0,1,47.28,46.11C48.09,35.74,50.52,16.82,57.78,0h.34C50.82,16.79,48.38,35.76,47.57,46.13Z"/><path class="cls-3" d="M60,.08c-4.9,55.57-6.31,112.7-6.91,167.68Q53,173,53,178.16h-.3c0-3.45.07-6.93.12-10.4.61-55,2-112.12,6.92-167.7Z"/><path class="cls-3" d="M59.81,167.77q-.51,5.19-1.08,10.38h-.32c.4-3.46.76-6.93,1.11-10.39A1183.47,1183.47,0,0,0,65.16,22.11,181.73,181.73,0,0,0,63.79,1.27l.3.16A179.21,179.21,0,0,1,65.46,22.1,1181.82,1181.82,0,0,1,59.81,167.77Z"/><path class="cls-3" d="M73.29,80.67c-1.69,29-4.44,58.3-8.22,87.19-.44,3.42-.91,6.83-1.39,10.23H63.4c.48-3.4.94-6.82,1.38-10.24C68.56,139,71.31,109.67,73,80.65,74.32,58,75.18,32.25,70,7.7l.48.86h0C75.45,32.88,74.6,58.24,73.29,80.67Z"/><path class="cls-3" d="M95.62,16.58c-.14,1.75-.19,3.5-.25,5.22-.05,1.24-.1,2.52-.17,3.78A80.31,80.31,0,0,1,92,43.73c-3,10.08-7.65,17.52-13.79,22.09l-.18-.24c6.1-4.52,10.71-11.91,13.69-21.94a79.7,79.7,0,0,0,3.17-18.07c.07-1.26.12-2.54.17-3.78,0-1.6.1-3.23.22-4.86,0,0,0,0,0,0Z"/><path class="cls-3" d="M103.1,14.43q-.34.72-.63,1.47c-1.45,3.73-1.9,7.8-2.33,11.76l0,.36c-1,9.33-2.38,19.18-6.23,28C90.77,63,86.49,70.47,78.13,72.31h-.06L78,72l.14,0c8.15-1.85,12.24-8.86,15.43-16.14C97.43,47.12,98.73,37.69,99.8,28l0-.36c.44-4,.89-8.06,2.34-11.82.2-.52.42-1,.65-1.51Z"/><path class="cls-3" d="M107.17,25a42.73,42.73,0,0,0-3,12.43c-.19,2-.32,4-.46,5.94-.44,6.75-.9,13.71-3.93,19.8A41.05,41.05,0,0,1,92,73.37c-4.18,4.22-8.07,6.34-11.59,6.34a8.67,8.67,0,0,1-2.53-.38l.08-.28c4,1.27,8.7-.71,13.83-5.89A40.14,40.14,0,0,0,99.53,63c3-6,3.46-13,3.91-19.68.14-2,.27-4,.46-6a42.38,42.38,0,0,1,3.25-13.08C107.16,24.51,107.17,24.74,107.17,25Z"/><path class="cls-3" d="M94.29,105.67a24.55,24.55,0,0,0-1.64,3.53,49.79,49.79,0,0,0-1.85,6.92c-.41,1.89-.84,3.85-1.44,5.71a31.22,31.22,0,0,1-6.51,11.36c-1.7,1.89-5,4.9-8.93,4.9A7,7,0,0,1,73,138l0-.29c4.15.51,7.78-2.76,9.57-4.74a31,31,0,0,0,6.46-11.26c.59-1.86,1-3.81,1.43-5.69a50.7,50.7,0,0,1,1.85-7,23.82,23.82,0,0,1,1.17-2.64h0l.62-.66A1.36,1.36,0,0,1,94.29,105.67Z"/><path class="cls-3" d="M102.31,103.49A23.41,23.41,0,0,0,98,109.13c-2,3.7-2.94,7.9-3.86,12-1.07,4.62-2.15,9.4-4.74,13.43a39.73,39.73,0,0,1-6,6.85c-3.46,3.36-7.21,6.4-11.4,6.4a8.45,8.45,0,0,1-1.4-.12l0-.29c4.61.76,8.77-2.53,12.54-6.2a38.85,38.85,0,0,0,6-6.8c2.56-4,3.65-8.73,4.68-13.34.94-4.08,1.91-8.3,3.9-12a22.84,22.84,0,0,1,4.26-5.63A1.43,1.43,0,0,0,102.31,103.49Z"/><path class="cls-3" d="M108.09,111.23v0c-1,2.93-1.94,5.92-2.82,8.83-.7,2.28-1.41,4.63-2.17,6.93-2.14,6.44-5.33,14.65-11.15,20.9a29.29,29.29,0,0,1-7.49,5.81,23.71,23.71,0,0,1-11.17,3,20.3,20.3,0,0,1-2.7-.18l0-.3a21.89,21.89,0,0,0,12.47-2.15h0a29,29,0,0,0,8.61-6.37c5.78-6.22,9-14.38,11.09-20.79.76-2.29,1.47-4.64,2.17-6.92.92-3,1.86-6.17,3-9.23A4,4,0,0,1,108.09,111.23Z"/><path class="cls-3" d="M37.29,101.43h-.11a11.05,11.05,0,0,1-1.81.15,12.86,12.86,0,0,1-9.7-4.47C22.23,93,21.8,87.26,21.8,82.7a173.51,173.51,0,0,1,1.83-21.52c1.33-10.47,2.7-21.24,1.06-31.72a6.37,6.37,0,0,1,.39.73h0c1.47,10.26.12,20.8-1.18,31A173,173,0,0,0,22.09,82.7c0,4.51.42,10.21,3.8,14.24a12.53,12.53,0,0,0,11.28,4.22h.08Z"/><path class="cls-3" d="M38.62,114.83a35.2,35.2,0,0,1-4.47.3,35.87,35.87,0,0,1-26-11.24A41.89,41.89,0,0,1,3.65,98c-.08-.32-.17-.63-.24-1a41,41,0,0,0,5,6.66,35.46,35.46,0,0,0,30.22,10.86Z"/><path class="cls-3" d="M38.13,107.71a9.85,9.85,0,0,1-3.48.63c-5.46,0-10.85-4.25-13.15-9.32-2.82-6.2-2.42-13.25-2.05-20.09v-.1c.53-9.5.89-19.15,1.24-28.49.28-7.65.59-16.12-1.06-24.14a1.34,1.34,0,0,1,.31.05c1.64,8,1.32,16.46,1,24.09-.35,9.35-.71,19-1.23,28.5l0,.1c-.37,6.8-.77,13.82,2,20S31.7,109.8,38,107.44Z"/><path class="cls-3" d="M38.55,111.55v.29H37.41c-10.72,0-19.49-3.6-24.2-10-3.72-5-4.81-11.65-5.4-17.43A140.38,140.38,0,0,1,9.39,45.14c.1-.6.21-1.18.33-1.76.86-4.6,1.74-9.31,1.09-13.81a1.88,1.88,0,0,1,.26-.22c.71,4.6-.19,9.41-1.06,14.07-.12.6-.22,1.18-.34,1.76A139.85,139.85,0,0,0,8.11,84.41c.57,5.75,1.66,12.31,5.35,17.3C18.26,108.22,27.42,111.82,38.55,111.55Z"/><path class="cls-4" d="M68.09,23.3a1.92,1.92,0,1,1,2.7.28A1.92,1.92,0,0,1,68.09,23.3Z"/><path class="cls-4" d="M63.73,4.37a12.61,12.61,0,0,1,5.17,5.91,12.2,12.2,0,0,1,1,3.9,9.23,9.23,0,0,1-.47,4,.32.32,0,0,1-.4.21.36.36,0,0,1-.22-.23v0c-.3-1.26-.53-2.42-.88-3.56a30,30,0,0,0-1.2-3.33c-.9-2.19-2-4.29-3.24-6.58h0a.19.19,0,0,1,.08-.25A.2.2,0,0,1,63.73,4.37Z"/><path class="cls-4" d="M43.5,166.78a32.53,32.53,0,0,1-1-5.1c-.25-1.7-.39-3.41-.47-5.12s-.1-3.43,0-5.15a32.68,32.68,0,0,1,.56-5.18.37.37,0,0,1,.44-.29.35.35,0,0,1,.29.26,32.53,32.53,0,0,1,1,5.1c.25,1.7.39,3.41.47,5.12s.1,3.43,0,5.15a33.89,33.89,0,0,1-.56,5.18.37.37,0,0,1-.45.29A.36.36,0,0,1,43.5,166.78Z"/><path class="cls-4" d="M42.13,172a1.7,1.7,0,0,1,3.39-.25,1.7,1.7,0,0,1-3.39.25Z"/><path class="cls-5" d="M4.5,173.71S41,185,104.74,174.1"/></g></g></svg>