<svg xmlns="http://www.w3.org/2000/svg" viewBox="0 0 96.44 125.47"><defs><style>.cls-1{fill:none;stroke:#232323;stroke-linecap:round;stroke-linejoin:round;stroke-width:2px;}</style></defs><g id="Layer_2" data-name="Layer 2"><g id="OBJECTS"><path class="cls-1" d="M44.63,1C33.71,19.64,26.31,40.13,20.93,61c-5.25,20.39-10.22,42.09-8.35,63.26"/><polyline class="cls-1" points="34.45 4.4 35.82 18.21 48.32 10.76"/><polyline class="cls-1" points="24.67 23 28.64 36.61 41.94 29"/><polyline class="cls-1" points="16.86 44.41 21.94 57.39 36.63 46.87"/><polyline class="cls-1" points="9.18 60.69 17.55 74.08 32.24 67.67"/><polyline class="cls-1" points="3.11 78.46 14.58 91.72 28.54 84.97"/><polyline class="cls-1" points="1 97.49 12.35 109.71 24.18 99.35"/><path class="cls-1" d="M95.44,11.93C78.6,25.46,64.38,42,51.93,59.55c-12.18,17.18-33,44.47-38.85,64.92"/><polyline class="cls-1" points="84.72 11.48 81.08 24.87 95.42 22.37"/><polyline class="cls-1" points="68.97 25.38 67.82 39.51 82.95 37.14"/><polyline class="cls-1" points="54.04 42.6 54.15 56.54 71.63 51.94"/><polyline class="cls-1" points="41.05 55.07 44.1 70.57 60.11 69.82"/><polyline class="cls-1" points="32.18 72.3 33.52 86.36 50.33 83.56"/></g></g></svg>