<svg xmlns="http://www.w3.org/2000/svg" viewBox="0 0 160 157.49"><defs><style>.cls-1{fill:#232323;}.cls-2{fill:#fff;}</style></defs><g id="Layer_2" data-name="Layer 2"><g id="OBJECTS"><path class="cls-1" d="M160,157.49H146.18v-1a7.27,7.27,0,1,0-14.53-.07v1l-1,.07h-14v-1a7.27,7.27,0,1,0-14.53-.07v1l-1,.07h-14v-1a7.27,7.27,0,1,0-14.53-.07v1l-1,.07h-14v-1a7.27,7.27,0,1,0-14.54-.07v1l-1,.07H28.31v-1a7.27,7.27,0,1,0-14.54-.07v1l-1,.07H0V146.3H1a7.27,7.27,0,0,0,0-14.54H0V116.83H1a7.27,7.27,0,0,0,0-14.54H0V87.36H1A7.27,7.27,0,0,0,1,72.82H0V57.89H1a7.26,7.26,0,0,0,7.24-7.26A7.28,7.28,0,0,0,1,43.35H0V28.41H1A7.27,7.27,0,0,0,1,13.88H0V0H13.77V1A7.29,7.29,0,0,0,21,8.33a7.27,7.27,0,0,0,7.27-7.26v-1l1-.09h14V1a7.29,7.29,0,0,0,7.27,7.35,7.27,7.27,0,0,0,7.27-7.26v-1l1-.09H72.71V1A7.29,7.29,0,0,0,80,8.33a7.27,7.27,0,0,0,7.26-7.26v-1l1-.09h14V1a7.29,7.29,0,0,0,7.27,7.35,7.27,7.27,0,0,0,7.26-7.26v-1l1-.09h14V1a7.29,7.29,0,0,0,7.27,7.35,7.27,7.27,0,0,0,7.26-7.26v-1l1-.09H160V14l-1.06-.09h-.27a7.27,7.27,0,1,0,0,14.53h.27l1.06-.09V43.45l-1.06-.09h-.27a7.27,7.27,0,1,0,0,14.53h.27l1.06-.09V72.91l-1.06-.08h-.27a7.27,7.27,0,1,0,.06,14.54h.21l1.06-.09v15.12l-1.06-.08h-.27a7.27,7.27,0,1,0,0,14.54h.27l1.06-.09v15.13l-1.06-.09h-.27a7.27,7.27,0,1,0,0,14.54h.27l1.06-.09Zm-11.91-2H158v-7.3a9.23,9.23,0,0,1,0-18.41V118.76a9.23,9.23,0,0,1,0-18.41V89.29a9.23,9.23,0,0,1,0-18.41V59.82a9.23,9.23,0,0,1,0-18.41V30.35a9.23,9.23,0,0,1,0-18.41V2h-9.95a9.22,9.22,0,0,1-18.35,0H118.62a9.22,9.22,0,0,1-18.35,0H89.15A9.22,9.22,0,0,1,70.8,2H59.69a9.25,9.25,0,0,1-9.18,8.33A9.23,9.23,0,0,1,41.33,2H30.21A9.22,9.22,0,0,1,11.86,2H2V12A9.23,9.23,0,0,1,2,30.32V41.44A9.23,9.23,0,0,1,2,59.79V70.92A9.22,9.22,0,0,1,2,89.26v11.13a9.22,9.22,0,0,1,0,18.34v11.13A9.22,9.22,0,0,1,2,148.2v7.33h9.9a9.23,9.23,0,0,1,18.36,0H41.33a9.23,9.23,0,0,1,18.36,0H70.8a9.22,9.22,0,0,1,18.35,0h11.13a9.21,9.21,0,0,1,18.34,0h11.13a9.21,9.21,0,0,1,18.34,0Z"/><polygon class="cls-1" points="143.52 15.64 143.52 143.02 16.15 143.02 17.23 14.57 143.52 15.64"/><rect class="cls-2" x="15.82" y="108.18" width="127.7" height="0.98"/><path class="cls-2" d="M87.66,22h0a.47.47,0,0,0-.1-.1s0,0,0,0l-.11-.06h0a.41.41,0,0,0-.16,0l-.15,0h0s0,0,0,0a.21.21,0,0,0-.1.06l-.07.09L42.34,82.7a.47.47,0,0,0,0,.51.5.5,0,0,0,.42.28l42.52,1.25h0a.5.5,0,0,0,.49-.48L87.5,29.57v-.33l.21-6.41,0-.59A.51.51,0,0,0,87.66,22ZM84.78,83.74l-41.1-1.2,43-58.74Z"/><path class="cls-2" d="M127.67,81.22l-39.18-58h0l-.25-.37L87.66,22h0a.47.47,0,0,0-.1-.1s0,0,0,0l-.11-.06h0a.41.41,0,0,0-.16,0l-.15,0h0s0,0,0,0a.21.21,0,0,0-.1.06l-.07.09a.43.43,0,0,0-.09.33l.73,7.29v.1l1,9.72L93,84.3a.49.49,0,0,0,.48.44h0L127.3,82a.49.49,0,0,0,.4-.29A.46.46,0,0,0,127.67,81.22Zm-33.73,2.5L88.49,29.66l-.56-5.55.56.83,37.9,56.14Z"/><path class="cls-2" d="M88,92.49a.49.49,0,0,1-.49-.49V23.23a.49.49,0,0,1,1,0V92A.49.49,0,0,1,88,92.49Z"/><polygon class="cls-2" points="44.49 91.75 126.01 91.75 115.26 108.75 54.24 108.75 44.49 91.75"/><rect class="cls-2" x="16.15" y="114.51" width="127.36" height="0.49"/><rect class="cls-2" x="16.15" y="123.02" width="127.36" height="0.49"/><rect class="cls-2" x="16.15" y="123.02" width="127.36" height="0.49"/><rect class="cls-2" x="16.15" y="131.52" width="127.36" height="0.49"/><circle class="cls-2" cx="39.11" cy="39.11" r="14.38"/><path class="cls-2" d="M138.1,26.76a37.91,37.91,0,0,1,.86,6c.17,2,.19,4,.19,6s-.12,4-.34,6a38,38,0,0,1-1,6,.45.45,0,0,1-.54.31.43.43,0,0,1-.32-.33,37.79,37.79,0,0,1-.86-6c-.17-2-.19-4-.19-6s.13-4,.35-6a38,38,0,0,1,1-6,.44.44,0,0,1,.54-.31A.42.42,0,0,1,138.1,26.76Z"/><path class="cls-2" d="M140.06,20.76a2,2,0,0,1-4,0,2,2,0,1,1,4,0Z"/></g></g></svg>