<svg xmlns="http://www.w3.org/2000/svg" viewBox="0 0 151.26 176.18"><defs><style>.cls-1{fill:#232323;}.cls-2{fill:#d6d6d6;}.cls-3{fill:#fff;}.cls-4{fill:#454545;}.cls-5{fill:none;stroke:#232323;stroke-linecap:round;stroke-linejoin:round;stroke-width:0.23px;}</style></defs><g id="Layer_2" data-name="Layer 2"><g id="OBJECTS"><path class="cls-1" d="M27.67,46S-13.22,91.49,4.41,135.73s105,48.76,125,23.94c28.84-35.78,16.21-97,16.21-97Z"/><ellipse class="cls-2" cx="85.22" cy="56.51" rx="15.05" ry="60.87" transform="translate(19.22 134.62) rotate(-83.35)"/><ellipse class="cls-1" cx="85.66" cy="53.72" rx="11.32" ry="52.49" transform="translate(22.37 132.58) rotate(-83.35)"/><path class="cls-2" d="M9.7,82.4a1,1,0,0,1-.35,0A27.9,27.9,0,0,1,3,79.6.93.93,0,1,1,4,78a25.84,25.84,0,0,0,5.9,2.58.93.93,0,0,1,.63,1.15A.92.92,0,0,1,9.7,82.4Z"/><path class="cls-2" d="M10.58,78.87a.89.89,0,0,1-.64-.18l-5.38-4a.91.91,0,0,1-.19-1.29.93.93,0,0,1,1.29-.2l5.39,4a.94.94,0,0,1,.19,1.3A.9.9,0,0,1,10.58,78.87Z"/><path class="cls-2" d="M9.75,151a.91.91,0,0,1-.57-.13.94.94,0,0,1-.31-1.27l3.52-5.79a.93.93,0,0,1,1.59,1l-3.52,5.78A.93.93,0,0,1,9.75,151Z"/><path class="cls-2" d="M87.85,176.17a.92.92,0,0,1-1-.83L86.21,169a.94.94,0,0,1,.84-1,.92.92,0,0,1,1,.83l.62,6.36A.92.92,0,0,1,87.85,176.17Z"/><path class="cls-2" d="M92.19,174.56a.92.92,0,0,1-1-.58l-1.79-4.61a.93.93,0,0,1,1.73-.67L93,173.31a.92.92,0,0,1-.53,1.19A.71.71,0,0,1,92.19,174.56Z"/><path class="cls-2" d="M141.33,142h-.15a24.08,24.08,0,0,1-6.55-1.34.92.92,0,0,1-.57-1.18.94.94,0,0,1,1.18-.57,22.46,22.46,0,0,0,6.06,1.24.93.93,0,0,1,.87,1A.94.94,0,0,1,141.33,142Z"/><path class="cls-2" d="M141.49,137.43a16.14,16.14,0,0,1-5-.29.94.94,0,0,1-.71-1.11.92.92,0,0,1,1.1-.7,14.08,14.08,0,0,0,4.93.19.94.94,0,0,1,1,.8.92.92,0,0,1-.79,1Z"/><path class="cls-2" d="M150.42,82.41l-5.88.58a.93.93,0,1,1-.18-1.85l5.88-.57a.92.92,0,1,1,.18,1.84Z"/><path class="cls-2" d="M149.26,86.71h-.13a17.22,17.22,0,0,1-5.12-1,.92.92,0,1,1,.62-1.74,15.82,15.82,0,0,0,4.58.88.92.92,0,0,1,0,1.84Z"/><path class="cls-2" d="M26.26,103a.93.93,0,0,1-.69-1.63,14.24,14.24,0,0,0,3.21-3.87.94.94,0,0,1,1.27-.35.93.93,0,0,1,.34,1.27,16.18,16.18,0,0,1-3.62,4.37A1,1,0,0,1,26.26,103Z"/><path class="cls-2" d="M30.82,76.91a.93.93,0,0,1-.8-.32A16.54,16.54,0,0,1,27.71,73a.93.93,0,1,1,1.68-.79,13.94,13.94,0,0,0,2,3.17.93.93,0,0,1-.61,1.53Z"/><path class="cls-2" d="M58.83,95.81a1,1,0,0,1-.67-.19A21.32,21.32,0,0,1,54.55,92,.93.93,0,0,1,56,90.86a19.08,19.08,0,0,0,3.3,3.3.92.92,0,0,1,.15,1.3A.88.88,0,0,1,58.83,95.81Z"/><path class="cls-2" d="M43.55,121.78a.92.92,0,0,1-.95-.59.93.93,0,0,1,.52-1.2A8.38,8.38,0,0,0,46.9,117a.93.93,0,1,1,1.51,1.07,10.36,10.36,0,0,1-4.61,3.61A1.14,1.14,0,0,1,43.55,121.78Z"/><path class="cls-2" d="M21.58,128.2a.93.93,0,0,1-.81-.34l-3.24-4A.93.93,0,0,1,19,122.73l3.24,4a.93.93,0,0,1-.13,1.3A1,1,0,0,1,21.58,128.2Z"/><path class="cls-2" d="M49.78,144.22a.91.91,0,0,1-.92-.52.93.93,0,0,1,.43-1.24,18.07,18.07,0,0,0,3.41-2.14.93.93,0,1,1,1.15,1.45,19.31,19.31,0,0,1-3.76,2.36A.85.85,0,0,1,49.78,144.22Z"/><path class="cls-2" d="M75.45,120.11a1,1,0,0,1-.81-.34l-3.76-4.65A.92.92,0,1,1,72.32,114l3.76,4.64a.92.92,0,0,1-.14,1.3A1,1,0,0,1,75.45,120.11Z"/><path class="cls-2" d="M73.73,82.67a.91.91,0,0,1-.9-.47.93.93,0,0,1,.35-1.26,20,20,0,0,1,5.06-2,.93.93,0,0,1,.43,1.81,18,18,0,0,0-4.58,1.78A1,1,0,0,1,73.73,82.67Z"/><path class="cls-2" d="M97.35,102.72a.92.92,0,0,1-.87-.43l-2.56-4a.93.93,0,1,1,1.56-1l2.56,4a.92.92,0,0,1-.28,1.28A.93.93,0,0,1,97.35,102.72Z"/><path class="cls-2" d="M92.67,135.09a.91.91,0,0,1-.85-.38.93.93,0,0,1,.21-1.29,28.51,28.51,0,0,0,4.42-3.94.93.93,0,1,1,1.37,1.25,30.63,30.63,0,0,1-4.7,4.19A.89.89,0,0,1,92.67,135.09Z"/><path class="cls-2" d="M110.44,88.59a.93.93,0,0,1-.44-1.78,24.75,24.75,0,0,0,4.17-2.19.93.93,0,0,1,1.28.28.92.92,0,0,1-.27,1.28,27.22,27.22,0,0,1-4.47,2.35A.88.88,0,0,1,110.44,88.59Z"/><path class="cls-2" d="M120.36,115.47a.94.94,0,0,1-1-.79l-.87-5.87a.93.93,0,0,1,1.84-.27l.87,5.87a.93.93,0,0,1-.78,1Z"/><path class="cls-2" d="M135.13,85.73a.93.93,0,0,1-.88-.45L131.69,81a.93.93,0,0,1,1.59-1l2.56,4.27a.93.93,0,0,1-.32,1.27A.9.9,0,0,1,135.13,85.73Z"/><path class="cls-2" d="M139.86,107.19a.91.91,0,0,1-.91-.5.93.93,0,0,1,.4-1.25l4.07-2.08a.94.94,0,0,1,1.25.41.92.92,0,0,1-.41,1.24l-4.07,2.08A.79.79,0,0,1,139.86,107.19Z"/><path class="cls-2" d="M122.71,143.29h-.13a.93.93,0,0,1-.88-1,15.17,15.17,0,0,0-.51-4.65.93.93,0,1,1,1.79-.49,16.75,16.75,0,0,1,.57,5.23A.92.92,0,0,1,122.71,143.29Z"/><path class="cls-2" d="M108.52,156.84a.89.89,0,0,1-.55-.12l-5-2.87a.92.92,0,0,1,.92-1.6l5,2.86a.93.93,0,0,1,.34,1.27A.91.91,0,0,1,108.52,156.84Z"/><path class="cls-2" d="M74.86,157.71a.93.93,0,0,1-1-.63,29,29,0,0,1-1.35-6.5.92.92,0,0,1,.83-1h0a.92.92,0,0,1,1,.84,27.61,27.61,0,0,0,1.27,6.09.93.93,0,0,1-.59,1.17Z"/><path class="cls-2" d="M39,155.54a.89.89,0,0,1-.32,0,12.68,12.68,0,0,1-6-3.57A.93.93,0,0,1,34,150.67a10.8,10.8,0,0,0,5.09,3.05.93.93,0,0,1,.66,1.13A.94.94,0,0,1,39,155.54Z"/><path class="cls-3" d="M139.8,95.79a37.51,37.51,0,0,1,.37,5.77c0,1.92-.1,3.82-.27,5.72s-.42,3.79-.77,5.67a36.31,36.31,0,0,1-1.42,5.61.42.42,0,0,1-.53.26.46.46,0,0,1-.28-.33,36.5,36.5,0,0,1-.37-5.78c0-1.91.1-3.82.27-5.71s.42-3.79.78-5.67A36.39,36.39,0,0,1,139,95.71a.4.4,0,0,1,.53-.25A.43.43,0,0,1,139.8,95.79Z"/><path class="cls-3" d="M142.1,90.24a1.89,1.89,0,1,1-1.76-2A1.89,1.89,0,0,1,142.1,90.24Z"/><path class="cls-3" d="M11.09,121.88a2.65,2.65,0,1,1-3.69.72A2.65,2.65,0,0,1,11.09,121.88Z"/><path class="cls-3" d="M24.43,145.18a17.32,17.32,0,0,1-9.2-5.75,16.74,16.74,0,0,1-2.9-4.75,12.59,12.59,0,0,1-1-5.44.44.44,0,0,1,.45-.44.42.42,0,0,1,.37.22l0,0c.91,1.55,1.68,3,2.61,4.36a39.76,39.76,0,0,0,2.91,3.92c2.07,2.54,4.43,4.85,6.93,7.41h0a.25.25,0,0,1,0,.36A.29.29,0,0,1,24.43,145.18Z"/><path class="cls-2" d="M138.94,20.65l-3.68,6.43-4.79-2.74-3.61-2.07-8.14-4.67L115,15.45l-6.86-3.94L105.55,10a10.13,10.13,0,0,0-1.28-.63,11.63,11.63,0,0,0-6.91-.7,10.86,10.86,0,0,0-1.83.52,11.71,11.71,0,0,0-4.93,3.49l-.07.09-.24.31-.06.1a4.62,4.62,0,0,0-.46.66l0,0,0,0a4.88,4.88,0,0,0-.34.58,1,1,0,0,0-.08.14,2.81,2.81,0,0,0-.19.39,4.59,4.59,0,0,0-.24.5,5.34,5.34,0,0,0-.26.64,12.85,12.85,0,0,0-.47,1.64l-1.06,5.05-.9,4.31L84.12,37l-1.05,5-1.95,9.31L80,56.71l-1.55,7.43c-2.25-.31-4.68-.66-6.53-.94-.29,0-.58-.08-.84-.12l1-4.93,2.16-10.29,1.09-5.24,2.35-11.19,1-4.86,2.15-10.24c0-.17.07-.35.11-.52a19.84,19.84,0,0,1,1.3-3.73,19,19,0,0,1,3.44-5,19.2,19.2,0,0,1,7.19-4.77l1-.35a19.07,19.07,0,0,1,9-.6,18,18,0,0,1,4.14,1.23,19.19,19.19,0,0,1,2.14,1l4.59,2.65,4.21,2.41,7.74,4.44,4.31,2.47Z"/><path class="cls-2" d="M97.72,11.19a.66.66,0,0,1-.6.06,3.41,3.41,0,0,1-1.57-.93,2.23,2.23,0,0,1,.17.83,5.66,5.66,0,0,1,0,.92.46.46,0,0,1-.41.45A2.64,2.64,0,0,1,94,12.21c-.16-.07-1.36-.67-1.38-.88a5.54,5.54,0,0,1,.07,1.7.84.84,0,0,1-.33.47c-.42.3-1,0-1.39-.33-.15-.11-.29-.24-.44-.36l-.13-.11a21.35,21.35,0,0,1-4.67-5.65h0A3.71,3.71,0,0,1,85.08,5a1.74,1.74,0,0,1,2.77-1.23,1.67,1.67,0,0,1,.57-2.13,1.66,1.66,0,0,1,2.15.47c-.1-.65-.16-1.43.34-1.85A1.31,1.31,0,0,1,92.32.17a3.29,3.29,0,0,1,1.08,1c.2.24.38.49.55.74a23,23,0,0,1,3.41,6.78c.18.59.34,1.19.46,1.79A.73.73,0,0,1,97.72,11.19Z"/><path class="cls-1" d="M138.94,20.65l-3.68,6.43S133.68,22.59,138.94,20.65Z"/><path class="cls-4" d="M81.12,51.35,80,56.71c-2.77,2-5.49,4.19-8.08,6.49-.29,0-.58-.08-.84-.12l1-4.93C75,55.73,78.06,53.47,81.12,51.35Z"/><path class="cls-4" d="M84.12,37l-1.05,5c-3,1.86-5.92,3.81-8.8,5.82l1.09-5.24Q79.67,39.72,84.12,37Z"/><path class="cls-4" d="M87.08,22.89l-.9,4.31a52.71,52.71,0,0,0-8.47,4.23l1-4.86A58.63,58.63,0,0,1,87.08,22.89Z"/><path class="cls-4" d="M90.57,12.72c-.12.16-.22.31-.28.4l-.06.1a11.16,11.16,0,0,0-1.62,3A46.4,46.4,0,0,0,81,15.81a19.84,19.84,0,0,1,1.3-3.73,58.39,58.39,0,0,1,8.11.62Z"/><path class="cls-4" d="M108.12,11.51,105.55,10a10.13,10.13,0,0,0-1.28-.63c-.1-1.34-.25-2.68-.42-4A22,22,0,0,0,103,1.33a18,18,0,0,1,4.14,1.23c.17.78.29,1.56.4,2.34Q108,8.18,108.12,11.51Z"/><path class="cls-4" d="M118.72,17.6,115,15.45a55.62,55.62,0,0,0-1.14-9.2l4.21,2.41A60.73,60.73,0,0,1,118.72,17.6Z"/><path class="cls-4" d="M130.47,24.34l-3.61-2.07a33,33,0,0,0-1.07-9.17l4.31,2.47A35.75,35.75,0,0,1,130.47,24.34Z"/><path class="cls-5" d="M70.91,63.07s7.17,1.16,8,1.24"/><path class="cls-3" d="M79.81,34.92A21.55,21.55,0,0,1,80,38.4c0,1.16-.06,2.3-.16,3.45s-.25,2.28-.46,3.41a22.91,22.91,0,0,1-.85,3.38.26.26,0,0,1-.33.15.24.24,0,0,1-.16-.2,22.56,22.56,0,0,1-.23-3.47c0-1.16.06-2.3.17-3.45s.25-2.28.46-3.41a22.91,22.91,0,0,1,.85-3.38.25.25,0,0,1,.32-.15A.23.23,0,0,1,79.81,34.92Z"/><path class="cls-3" d="M81.2,31.58a1.14,1.14,0,1,1-1.06-1.2A1.13,1.13,0,0,1,81.2,31.58Z"/></g></g></svg>