<svg xmlns="http://www.w3.org/2000/svg" viewBox="0 0 164.56 102.83"><defs><style>.cls-1{fill:#232323;}.cls-2{fill:#fff;}</style></defs><g id="Layer_2" data-name="Layer 2"><g id="OBJECTS"><path class="cls-1" d="M100.46,98.11C17.81,122.38,0,45.13,0,45.13L7.58,43l.74-.21.76-.21L53.71,30.31l.33-.09h0l17.46-4.81,1.27-.36,1.46-.39.75-.21,9.3-2.56.8-.23,6.29-1.73,1.54-.42h0L101,17.28l.16-.05s0,0,0,0l51.1-14.09,1.16-.33.74-.2L163.65,0S177.12,75.61,100.46,98.11Z"/><path class="cls-1" d="M96.41,86.13C33.13,104.7,13.15,55.51,9.08,42.62L53.71,30.31l47.3-13L152.28,3.14C153.62,16.52,154.93,69,96.41,86.13Z"/><path class="cls-2" d="M149.22,46.67c-7.85,17.27-23.07,30-45.23,37.94-11.43,4.08-22.21,6.13-32.26,6.13A65.49,65.49,0,0,1,52.67,88a59.51,59.51,0,0,1-9.46-3.71,65,65,0,0,1-17-12.3A82.48,82.48,0,0,1,7.58,43l-.1-.28.74-.23a1.75,1.75,0,0,0,.1.3A76.86,76.86,0,0,0,15,56.55l0,.05A76.73,76.73,0,0,0,31,75.41l.59.49a62.4,62.4,0,0,0,11.93,7.72c12,5.92,25.69,7.7,40.78,5.32.26,0,.51-.08.76-.12l1-.18a108.66,108.66,0,0,0,17.65-4.75,95.13,95.13,0,0,0,22.17-11.11l.63-.44a63.94,63.94,0,0,0,22-26,63.26,63.26,0,0,0,4.06-12l.18-.74a84.71,84.71,0,0,0,.68-30.8l.74-.2C156,14.49,156.34,31,149.22,46.67Z"/><polygon class="cls-2" points="71.73 25.15 72.99 24.79 72.78 25.05 65.27 34.33 31.62 75.9 31.3 76.29 30.7 75.82 31.03 75.41 65.32 33.05 71.51 25.41 71.73 25.15"/><polygon class="cls-2" points="85.15 89.16 84.39 89.28 84.34 88.97 84.33 88.94 75.08 29.98 74.24 24.66 74.21 24.46 74.96 24.26 74.99 24.45 75.89 30.17 85.09 88.82 85.09 88.83 85.15 89.16"/><polygon class="cls-2" points="126.67 72.49 126.07 72.98 125.91 72.78 125.19 71.9 94 33.76 84.29 21.89 84.15 21.72 84.96 21.5 85.09 21.66 85.1 21.66 94.76 33.48 125.8 71.43 126.54 72.34 126.67 72.49"/><polygon class="cls-2" points="152.88 33.64 152.7 34.38 152.58 34.35 149.91 33.72 98.02 21.5 91.38 19.93 90.99 19.84 92.53 19.41 92.92 19.51 92.92 19.51 99.22 20.99 99.23 20.99 150.1 32.99 152.76 33.61 152.88 33.64"/><path class="cls-2" d="M116.86,40.63a.45.45,0,1,1-.76-.49.45.45,0,1,1,.76.49Z"/><path class="cls-2" d="M107.35,34.47a.47.47,0,0,1-.65.17.48.48,0,0,1-.1-.66.45.45,0,1,1,.75.49Z"/><path class="cls-2" d="M127.6,47.6a.49.49,0,0,1-.65.18.49.49,0,0,1-.1-.67.45.45,0,1,1,.75.49Z"/><path class="cls-2" d="M141.85,40.27a.47.47,0,0,1-.65.18.48.48,0,0,1-.1-.66.49.49,0,0,1,.65-.18A.47.47,0,0,1,141.85,40.27Z"/><path class="cls-2" d="M135.63,51.18a.45.45,0,1,1-.75-.49.47.47,0,0,1,.65-.17A.48.48,0,0,1,135.63,51.18Z"/><path class="cls-2" d="M132.93,44.27a.46.46,0,0,1-.64.17.5.5,0,0,1,.54-.83A.46.46,0,0,1,132.93,44.27Z"/><path class="cls-2" d="M142.65,49.28a.45.45,0,1,1-.76-.49.45.45,0,1,1,.76.49Z"/><path class="cls-2" d="M118.89,50.22a.45.45,0,1,1-.75-.49.46.46,0,0,1,.64-.17A.47.47,0,0,1,118.89,50.22Z"/><path class="cls-2" d="M112.86,46.31a.45.45,0,1,1-.11-.66A.47.47,0,0,1,112.86,46.31Z"/><path class="cls-2" d="M125.3,38.45a.47.47,0,0,1-.65.17.48.48,0,0,1-.1-.66.45.45,0,1,1,.75.49Z"/><path class="cls-2" d="M122.4,18.07a.45.45,0,1,1-.89-.14.48.48,0,0,1,.53-.42A.47.47,0,0,1,122.4,18.07Z"/><path class="cls-2" d="M111.21,16.29a.47.47,0,0,1-.52.43.47.47,0,0,1-.36-.57.45.45,0,1,1,.88.14Z"/><path class="cls-2" d="M135.05,20.08a.45.45,0,1,1-.36-.56A.47.47,0,0,1,135.05,20.08Z"/><path class="cls-2" d="M145.1,7.6a.45.45,0,1,1-.89-.14.45.45,0,1,1,.89.14Z"/><path class="cls-2" d="M143.84,20.09A.45.45,0,1,1,143,20a.47.47,0,0,1,.52-.42A.48.48,0,0,1,143.84,20.09Z"/><path class="cls-2" d="M138.57,14.87a.45.45,0,1,1-.36-.57A.49.49,0,0,1,138.57,14.87Z"/><path class="cls-2" d="M149.48,15.5a.47.47,0,0,1-.52.43.5.5,0,0,1,.16-1A.48.48,0,0,1,149.48,15.5Z"/><path class="cls-2" d="M128.15,26a.47.47,0,0,1-.52.42.5.5,0,0,1,.16-1A.48.48,0,0,1,128.15,26Z"/><path class="cls-2" d="M121.05,24.88a.45.45,0,1,1-.88-.14.47.47,0,0,1,.52-.42A.48.48,0,0,1,121.05,24.88Z"/><path class="cls-2" d="M129.23,12.65a.45.45,0,1,1-.36-.57A.47.47,0,0,1,129.23,12.65Z"/><path class="cls-2" d="M92.06,55.58a.45.45,0,1,1,.38-.55A.47.47,0,0,1,92.06,55.58Z"/><path class="cls-2" d="M89.39,44.57a.47.47,0,0,1-.59-.31.5.5,0,0,1,1-.24A.47.47,0,0,1,89.39,44.57Z"/><path class="cls-2" d="M95.08,68a.49.49,0,0,1-.59-.32.47.47,0,0,1,.38-.55.48.48,0,0,1,.6.32A.49.49,0,0,1,95.08,68Z"/><path class="cls-2" d="M110.47,72.49a.48.48,0,0,1-.59-.32.5.5,0,1,1,.59.32Z"/><path class="cls-2" d="M98.46,76.15a.45.45,0,1,1,.38-.56A.48.48,0,0,1,98.46,76.15Z"/><path class="cls-2" d="M101.25,69.27a.48.48,0,0,1-.59-.32.5.5,0,0,1,1-.24A.48.48,0,0,1,101.25,69.27Z"/><path class="cls-2" d="M104.87,79.58a.48.48,0,0,1-.59-.32.5.5,0,0,1,1-.23A.47.47,0,0,1,104.87,79.58Z"/><path class="cls-2" d="M87,64a.48.48,0,0,1-.59-.32.5.5,0,0,1,1-.24A.48.48,0,0,1,87,64Z"/><path class="cls-2" d="M85.26,57a.48.48,0,0,1-.6-.32.51.51,0,0,1,1-.23A.48.48,0,0,1,85.26,57Z"/><path class="cls-2" d="M99.7,59.8a.45.45,0,1,1,.38-.56A.48.48,0,0,1,99.7,59.8Z"/><path class="cls-2" d="M64.56,54.94a.45.45,0,1,1,.29-.84.45.45,0,1,1-.29.84Z"/><path class="cls-2" d="M68.33,44.26A.45.45,0,1,1,69,44,.47.47,0,0,1,68.33,44.26Z"/><path class="cls-2" d="M60.29,67a.47.47,0,0,1-.33-.59.51.51,0,1,1,.33.59Z"/><path class="cls-2" d="M70.74,79.17a.45.45,0,1,1,.3-.85.45.45,0,1,1-.3.85Z"/><path class="cls-2" d="M58.68,75.66a.47.47,0,0,1-.32-.59.5.5,0,0,1,.94.34A.47.47,0,0,1,58.68,75.66Z"/><path class="cls-2" d="M64.77,71.43a.45.45,0,1,1,.62-.26A.47.47,0,0,1,64.77,71.43Z"/><path class="cls-2" d="M62.17,82a.45.45,0,1,1,.3-.84.45.45,0,1,1-.3.84Z"/><path class="cls-2" d="M55.7,59.16a.45.45,0,1,1,.3-.85.45.45,0,1,1-.3.85Z"/><path class="cls-2" d="M58.1,52.38a.47.47,0,0,1-.32-.59.47.47,0,0,1,.62-.25.45.45,0,1,1-.3.84Z"/><path class="cls-2" d="M68.65,62.65a.48.48,0,0,1-.32-.59A.47.47,0,0,1,69,61.8a.45.45,0,1,1-.3.85Z"/><path class="cls-2" d="M41.76,44a.48.48,0,0,1,.23-.63.5.5,0,0,1,.38.92A.48.48,0,0,1,41.76,44Z"/><path class="cls-2" d="M52.26,39.74a.45.45,0,1,1,.6.29A.47.47,0,0,1,52.26,39.74Z"/><path class="cls-2" d="M29.89,48.82a.48.48,0,0,1,.23-.63.5.5,0,0,1,.38.92A.48.48,0,0,1,29.89,48.82Z"/><path class="cls-2" d="M27.74,64.7a.49.49,0,0,1,.23-.64.47.47,0,0,1,.6.3.46.46,0,0,1-.22.63A.48.48,0,0,1,27.74,64.7Z"/><path class="cls-2" d="M22.36,53.35a.45.45,0,1,1,.83-.34.45.45,0,1,1-.83.34Z"/><path class="cls-2" d="M29.57,55.1a.48.48,0,0,1,.23-.63.5.5,0,0,1,.38.92A.47.47,0,0,1,29.57,55.1Z"/><path class="cls-2" d="M19.91,60.19a.47.47,0,0,1,.22-.63.49.49,0,0,1,.61.3.48.48,0,0,1-.23.63A.47.47,0,0,1,19.91,60.19Z"/><path class="cls-2" d="M32.73,40.17a.48.48,0,0,1,.23-.63.49.49,0,0,1,.61.3.48.48,0,0,1-.23.63A.49.49,0,0,1,32.73,40.17Z"/><path class="cls-2" d="M39.4,37.47a.46.46,0,0,1,.22-.63.48.48,0,0,1,.61.29.48.48,0,0,1-.23.63A.46.46,0,0,1,39.4,37.47Z"/><path class="cls-2" d="M38.72,52.17a.47.47,0,0,1,.22-.63.49.49,0,0,1,.61.3.48.48,0,0,1-.23.63A.47.47,0,0,1,38.72,52.17Z"/><path class="cls-2" d="M157.68,36.16a28.07,28.07,0,0,1-.5,4.42c-.26,1.45-.6,2.87-1,4.29s-.84,2.8-1.36,4.18A28.64,28.64,0,0,1,153,53.1a.33.33,0,0,1-.61-.17,28.08,28.08,0,0,1,.51-4.42c.25-1.44.59-2.87,1-4.28s.83-2.81,1.36-4.18a27.66,27.66,0,0,1,1.83-4,.32.32,0,0,1,.44-.12A.29.29,0,0,1,157.68,36.16Z"/><path class="cls-2" d="M160.18,32.28a1.45,1.45,0,1,1-1.06-1.75A1.44,1.44,0,0,1,160.18,32.28Z"/><path class="cls-2" d="M10.65,56.39a1.26,1.26,0,1,1-1.78,0A1.24,1.24,0,0,1,10.65,56.39Z"/><path class="cls-2" d="M14.79,68.5A8.28,8.28,0,0,1,11,65a8.12,8.12,0,0,1-.92-2.49,6,6,0,0,1,0-2.63.22.22,0,0,1,.26-.17.21.21,0,0,1,.15.14v0c.28.8.51,1.55.82,2.27a19.32,19.32,0,0,0,1,2.1c.74,1.38,1.64,2.67,2.57,4.1h0a.13.13,0,0,1,0,.17A.11.11,0,0,1,14.79,68.5Z"/></g></g></svg>